REM DIRINDEX 1\2,1\3,1\4,1\5\6,1\5\7,1\8
REM DIRNAME folder01,folder02,folder03,folder04,folder05,folder06,folder07,folder08
TITLE ""
FILE "029 Åy029ÅzUnit2 (0325 bystander_0336 brochure).mp3" MP3
  TRACK 01 AUDIO
    TITLE "0:"
    INDEX 01 00:00:00
  TRACK 02 AUDIO
    TITLE "2:cjc115_1090"
    INDEX 01 00:00:05
  TRACK 03 AUDIO
    TITLE "0:"
    INDEX 01 00:01:42
  TRACK 04 AUDIO
    TITLE "3:cjc115_1091"
    INDEX 01 00:01:50
  TRACK 05 AUDIO
    TITLE "0:"
    INDEX 01 00:04:01
  TRACK 06 AUDIO
    TITLE "4:cjc115_1092"
    INDEX 01 00:04:15
  TRACK 07 AUDIO
    TITLE "0:"
    INDEX 01 00:08:05
  TRACK 08 AUDIO
    TITLE "2:cjc115_1093"
    INDEX 01 00:09:16
  TRACK 09 AUDIO
    TITLE "0:"
    INDEX 01 00:10:53
  TRACK 10 AUDIO
    TITLE "3:cjc115_1094"
    INDEX 01 00:10:61
  TRACK 11 AUDIO
    TITLE "0:"
    INDEX 01 00:12:50
  TRACK 12 AUDIO
    TITLE "4:cjc115_1095"
    INDEX 01 00:12:67
  TRACK 13 AUDIO
    TITLE "0:"
    INDEX 01 00:17:14
  TRACK 14 AUDIO
    TITLE "2:cjc115_1096"
    INDEX 01 00:18:15
  TRACK 15 AUDIO
    TITLE "0:"
    INDEX 01 00:19:38
  TRACK 16 AUDIO
    TITLE "3:cjc115_1097"
    INDEX 01 00:19:50
  TRACK 17 AUDIO
    TITLE "0:"
    INDEX 01 00:22:13
  TRACK 18 AUDIO
    TITLE "4:cjc115_1098"
    INDEX 01 00:22:29
  TRACK 19 AUDIO
    TITLE "0:"
    INDEX 01 00:26:13
  TRACK 20 AUDIO
    TITLE "2:cjc115_1099"
    INDEX 01 00:27:24
  TRACK 21 AUDIO
    TITLE "0:"
    INDEX 01 00:28:35
  TRACK 22 AUDIO
    TITLE "3:cjc115_1100"
    INDEX 01 00:28:43
  TRACK 23 AUDIO
    TITLE "0:"
    INDEX 01 00:29:64
  TRACK 24 AUDIO
    TITLE "4:cjc115_1101"
    INDEX 01 00:29:74
  TRACK 25 AUDIO
    TITLE "0:"
    INDEX 01 00:33:44
  TRACK 26 AUDIO
    TITLE "2:cjc115_1102"
    INDEX 01 00:34:47
  TRACK 27 AUDIO
    TITLE "0:"
    INDEX 01 00:35:43
  TRACK 28 AUDIO
    TITLE "3:cjc115_1103"
    INDEX 01 00:35:53
  TRACK 29 AUDIO
    TITLE "0:"
    INDEX 01 00:37:57
  TRACK 30 AUDIO
    TITLE "4:cjc115_1104"
    INDEX 01 00:37:65
  TRACK 31 AUDIO
    TITLE "0:"
    INDEX 01 00:42:02
  TRACK 32 AUDIO
    TITLE "2:cjc115_1105"
    INDEX 01 00:43:13
  TRACK 33 AUDIO
    TITLE "0:"
    INDEX 01 00:44:14
  TRACK 34 AUDIO
    TITLE "3:cjc115_1106"
    INDEX 01 00:44:18
  TRACK 35 AUDIO
    TITLE "0:"
    INDEX 01 00:47:07
  TRACK 36 AUDIO
    TITLE "4:cjc115_1107"
    INDEX 01 00:47:23
  TRACK 37 AUDIO
    TITLE "0:"
    INDEX 01 00:51:20
  TRACK 38 AUDIO
    TITLE "2:cjc115_1108"
    INDEX 01 00:52:32
  TRACK 39 AUDIO
    TITLE "0:"
    INDEX 01 00:53:35
  TRACK 40 AUDIO
    TITLE "3:cjc115_1109"
    INDEX 01 00:53:43
  TRACK 41 AUDIO
    TITLE "0:"
    INDEX 01 00:55:44
  TRACK 42 AUDIO
    TITLE "4:cjc115_1110"
    INDEX 01 00:55:51
  TRACK 43 AUDIO
    TITLE "0:"
    INDEX 01 00:59:38
  TRACK 44 AUDIO
    TITLE "2:cjc115_1111"
    INDEX 01 01:00:47
  TRACK 45 AUDIO
    TITLE "0:"
    INDEX 01 01:01:52
  TRACK 46 AUDIO
    TITLE "3:cjc115_1112"
    INDEX 01 01:01:64
  TRACK 47 AUDIO
    TITLE "0:"
    INDEX 01 01:04:23
  TRACK 48 AUDIO
    TITLE "4:cjc115_1113"
    INDEX 01 01:04:33
  TRACK 49 AUDIO
    TITLE "0:"
    INDEX 01 01:08:31
  TRACK 50 AUDIO
    TITLE "2:cjc115_1114"
    INDEX 01 01:09:42
  TRACK 51 AUDIO
    TITLE "0:"
    INDEX 01 01:10:67
  TRACK 52 AUDIO
    TITLE "3:cjc115_1115"
    INDEX 01 01:11:02
  TRACK 53 AUDIO
    TITLE "0:"
    INDEX 01 01:12:11
  TRACK 54 AUDIO
    TITLE "4:cjc115_1116"
    INDEX 01 01:12:21
  TRACK 55 AUDIO
    TITLE "0:"
    INDEX 01 01:16:56
  TRACK 56 AUDIO
    TITLE "2:cjc115_1117"
    INDEX 01 01:17:67
  TRACK 57 AUDIO
    TITLE "0:"
    INDEX 01 01:19:13
  TRACK 58 AUDIO
    TITLE "3:cjc115_1118"
    INDEX 01 01:19:15
  TRACK 59 AUDIO
    TITLE "0:"
    INDEX 01 01:21:53
  TRACK 60 AUDIO
    TITLE "4:cjc115_1119"
    INDEX 01 01:21:61
  TRACK 61 AUDIO
    TITLE "0:"
    INDEX 01 01:26:13
  TRACK 62 AUDIO
    TITLE "2:cjc115_1120"
    INDEX 01 01:27:24
  TRACK 63 AUDIO
    TITLE "0:"
    INDEX 01 01:28:47
  TRACK 64 AUDIO
    TITLE "3:cjc115_1121"
    INDEX 01 01:28:55
  TRACK 65 AUDIO
    TITLE "0:"
    INDEX 01 01:30:69
  TRACK 66 AUDIO
    TITLE "4:cjc115_1122"
    INDEX 01 01:31:02
  TRACK 67 AUDIO
    TITLE "0:"
    INDEX 01 01:34:50
  TRACK 68 AUDIO
    TITLE "2:cjc115_1123"
    INDEX 01 01:35:55
  TRACK 69 AUDIO
    TITLE "0:"
    INDEX 01 01:36:70
  TRACK 70 AUDIO
    TITLE "3:cjc115_1124"
    INDEX 01 01:37:05
  TRACK 71 AUDIO
    TITLE "0:"
    INDEX 01 01:39:53
  TRACK 72 AUDIO
    TITLE "4:cjc115_1125"
    INDEX 01 01:39:63
  TRACK 73 AUDIO
    TITLE "0:"
    INDEX 01 01:43:41
